<?xml version="1.0" encoding="utf-8"?>
<!-- Generator: Adobe Illustrator 18.1.1, SVG Export Plug-In . SVG Version: 6.00 Build 0)  -->
<svg version="1.1" id="Layer_1" xmlns="http://www.w3.org/2000/svg" xmlns:xlink="http://www.w3.org/1999/xlink" x="0px" y="0px"
	 viewBox="0 0 508 155" enable-background="new 0 0 508 155" xml:space="preserve">
<path display="none" fill="#FFFFFF" d="M0,0h508v155H0"/>
<g>
	<path fill="#FFFFFF" stroke="#FFFFFF" stroke-miterlimit="10" d="M137.6,141.4c-1.2-13.1,1.8-25.3,5.5-37.1
		c8.8-28.1,18.2-56,27.3-84c1.1-3.2,1.6-6.7,2.4-10.4c-2-0.1-3.4-0.2-4.7-0.2c-11.3,0-22.6,0-33.9,0c-4.3,0-9.6-1.3-12.6,0.8
		c-3.3,2.2-4.7,7.5-6.6,11.6c-10.2,22.7-14,47-18,71.2c-1.2,7-2,14.1-2.9,21.1c-4.3-37.2,0.9-72.6,20-105.2c-3-1-4.3-0.1-5.5,2.2
		c-8.4,16.6-13.9,34-16.6,52.4c-0.6,3.9-1,7.9-1.4,11.8c-0.4,3.9-0.6,7.8-0.9,11.7c-2.5-26.7,1.8-52.4,12.1-77.1
		c-3.1-1.3-3.5,0.8-4.1,2.5C91.8,28.2,88,44.2,87,60.8c-0.4,5.8-0.6,11.6-0.9,18.2c-0.5-1.8-0.8-2.8-1.1-3.8
		c-3.7-11.5-7.1-23.2-14-33.3c-7.1-10.4-20.7-18.8-31.2-19.2c0.2,0.2,0.3,0.4,0.5,0.4c0.5,0.2,1.1,0.4,1.6,0.6
		c9.7,3.6,17.6,9.6,23.5,18.1c10.1,14.5,17,30.5,20.7,47.7c0.3,1.3,0.4,2.6,0.6,4.9c-4-7.7-7.1-14.6-11-21c-3.9-6.5-8-13-13.1-18.5
		c-5.1-5.5-11.1-10.3-17.3-14.5c-6.1-4.2-13.1-6.9-20.6-7.8c16.3,7.5,29.9,18.3,41.4,32c11.4,13.5,22.7,39.2,20.5,47.4
		c-0.5-0.7-0.9-1.2-1.3-1.7C72.2,88.6,56.5,68.7,39,50.1c-6.1-6.5-13.1-11.5-21.6-14.4c-1.9-0.6-3.1-0.4-3.8,1.6
		c-0.9,2.6-2,5.2-2.8,7.2c7.6,7.1,15.3,13.4,21.9,20.6c20.2,22.1,38,46,51.1,73c1.2,2.4,2.4,3.4,5.2,3.4c14.8-0.2,29.6-0.1,44.4-0.1
		C134.7,141.6,135.8,141.5,137.6,141.4z M439.4,141.7c0-27.6,0-54.9,0-82.8c0.5,1.1,0.7,1.6,0.9,2.2c9.5,26,19.1,52,28.7,78.1
		c0.4,1,1.2,2.4,1.9,2.5c3.5,0.3,7.1,0.1,10.6,0.1c0-38.3,0-76,0-113.8c-3.7,0-7.1,0-10.7,0c0,27.5,0,54.9,0,83.1
		c-0.6-1.8-1-2.9-1.4-4c-9.4-25.7-18.9-51.4-28.4-77c-0.3-0.9-1.4-2-2.2-2.1c-3.3-0.2-6.7-0.1-10-0.1c0,38.2,0,76,0,113.9
		C432.4,141.7,435.8,141.7,439.4,141.7z M334.1,98.4c0,8.6,0.1,16.9-0.1,25.1c0,0.7-1.3,1.8-2.2,2.1c-7.3,2.2-14.9-0.2-19.1-6.6
		c-2.2-3.3-3.9-7.2-5-11c-2.9-10.2-2.9-20.8-2.1-31.2c0.7-8.4,2.6-16.6,7.4-23.8c4.4-6.6,10.4-10.4,18.6-9c3.8,0.6,7.5,2.1,11.6,3.3
		c0-5.2,0.1-10.4-0.1-15.6c0-0.9-1-2.1-1.9-2.5c-5.5-2.6-11.2-4-17.3-2.9c-10.7,1.9-17.1,9.1-21.6,18.2c-7.7,15.5-9.3,32.1-8.7,49.1
		c0.4,11.1,2,22.1,6.8,32.3c8.3,17.6,24.6,23.1,42,14.4c2.1-1.1,3-2.3,3-4.8c-0.1-17-0.1-34-0.1-51.1c0-1-0.1-2-0.2-3.1
		c-8.3,0-16.4,0-24.5,0c0,5.8,0,11.4,0,17.3C325.3,98.4,329.5,98.4,334.1,98.4z M371.2,141.7c0-16.6,0-32.9,0-49.2
		c9.5,0,18.7,0,28.2,0c0,16.5,0,32.8,0,49c3.9,0,7.3,0,10.9,0c0-37.9,0-75.6,0-113.5c-3.7,0-7.3,0-11.3,0c0,15.6,0,31.1,0,46.4
		c-9.5,0-18.6,0-28.1,0c0-15.6,0-31.1,0-46.4c-3.9,0-7.4,0-10.8,0c0,38,0,75.8,0,113.7C363.9,141.7,367.2,141.7,371.2,141.7z
		 M227.3,28c0,2.9,0,5.4,0,7.9c0.2,23.9,0.2,47.8,0.6,71.7c0.1,8.5,2,16.9,6.1,24.5c3,5.6,7.2,9.7,13.6,11.2
		c11.4,2.8,21.5-2.9,26.3-14.8c3.9-9.7,4.8-19.9,4.9-30.2c0.1-22.4,0.1-44.7,0.1-67.1c0-1-0.1-2-0.2-3.1c-3.8,0-7.3,0-11.1,0
		c0,1.7,0,3,0,4.4c0,21.2,0.2,42.4-0.2,63.6c-0.1,7.1-1.6,14.3-3.3,21.3c-1.3,5.2-5.1,8.7-10.9,8.8c-5.8,0.1-9.5-3.4-11.1-8.6
		c-1.6-5.3-3-10.9-3.1-16.4c-0.4-22.9-0.3-45.9-0.4-68.9c0-1.5,0-2.9,0-4.5C234.7,28,231.3,28,227.3,28z M218.1,141.7
		C210,103.6,202,65.8,194,28c-3.6,0-6.9,0-10.4,0c-8,37.9-16,75.7-24.1,113.8c3.5,0,6.4-0.1,9.3,0c2,0.1,2.8-0.6,3.2-2.6
		c1.5-7.8,3.2-15.5,4.7-23.3c0.5-2.5,1.5-3.2,3.9-3.2c5.1,0.2,10.3,0.3,15.4,0c3.3-0.2,4.6,0.8,5.2,4.2c1.4,8.2,3.3,16.4,5,24.7
		C210.2,141.7,213.8,141.7,218.1,141.7z M187.9,52.5l9.3,42.7l-17,0.2l7.6-43.8"/>
	<path fill="#FFFFFF" stroke="#FFFFFF" stroke-miterlimit="10" d="M137.6,141.4c-1.8,0.1-2.9,0.2-4.1,0.2c-14.8,0-29.6-0.1-44.4,0.1
		c-2.8,0-4-0.9-5.2-3.4c-13.1-27.1-31-50.9-51.1-73C26.1,58,18.5,51.7,10.9,44.6c0.8-2.1,1.9-4.6,2.8-7.2c0.7-2,1.9-2.2,3.8-1.6
		c8.5,2.8,15.5,7.9,21.6,14.4c17.5,18.6,33.2,38.5,46.5,60.2c0.3,0.6,0.8,1.1,1.3,1.7c2.2-8.2-9.2-33.9-20.5-47.4
		c-11.5-13.6-25.1-24.4-41.4-32c7.5,0.9,14.5,3.6,20.6,7.8c6.2,4.3,12.2,9,17.3,14.5c5.1,5.5,9.2,12,13.1,18.5c3.9,6.4,7,13.3,11,21
		c-0.3-2.3-0.4-3.6-0.6-4.9c-3.8-17.3-10.6-33.2-20.7-47.7C59.5,33.4,51.6,27.4,42,23.8c-0.5-0.2-1.1-0.4-1.6-0.6
		c-0.2-0.1-0.4-0.3-0.5-0.4c10.5,0.5,24.1,8.8,31.2,19.2c6.9,10.2,10.3,21.8,14,33.3c0.3,1,0.6,2,1.1,3.8c0.3-6.6,0.5-12.4,0.9-18.2
		c1.1-16.6,4.8-32.7,10.7-48.2c0.6-1.7,1.1-3.8,4.1-2.5C91.5,34.8,87.1,60.4,89.7,87.2c0.3-3.9,0.5-7.8,0.9-11.7
		c0.4-3.9,0.8-7.9,1.4-11.8c2.7-18.4,8.2-35.8,16.6-52.4c1.1-2.3,2.5-3.2,5.5-2.2C94.9,41.8,89.8,77.2,94,114.4
		c1-7,1.8-14.1,2.9-21.1c4-24.2,7.8-48.6,18-71.2c1.9-4.1,3.3-9.4,6.6-11.6c3-2,8.3-0.8,12.6-0.8c11.3-0.1,22.6,0,33.9,0
		c1.4,0,2.7,0.1,4.7,0.2c-0.9,3.8-1.4,7.2-2.4,10.4c-9.1,28-18.5,55.9-27.3,84C139.4,116.1,136.4,128.3,137.6,141.4z"/>
	<path fill="#FFFFFF" stroke="#FFFFFF" stroke-miterlimit="10" d="M439.4,141.7c-3.7,0-7,0-10.7,0c0-37.9,0-75.6,0-113.9
		c3.4,0,6.7-0.1,10,0.1c0.8,0.1,1.9,1.2,2.2,2.1c9.5,25.7,18.9,51.4,28.4,77c0.4,1.1,0.8,2.2,1.4,4c0-28.2,0-55.5,0-83.1
		c3.6,0,7,0,10.7,0c0,37.8,0,75.5,0,113.8c-3.5,0-7,0.1-10.6-0.1c-0.7-0.1-1.6-1.5-1.9-2.5c-9.6-26-19.1-52-28.7-78.1
		c-0.2-0.5-0.4-1-0.9-2.2C439.4,86.9,439.4,114.1,439.4,141.7z"/>
	<path fill="#FFFFFF" stroke="#FFFFFF" stroke-miterlimit="10" d="M334.1,98.4c-4.6,0-8.9,0-13.4,0c0-5.9,0-11.5,0-17.3
		c8.1,0,16.1,0,24.5,0c0.1,1.1,0.2,2.1,0.2,3.1c0,17-0.1,34,0.1,51.1c0,2.5-0.9,3.7-3,4.8c-17.4,8.7-33.7,3.2-42-14.4
		c-4.8-10.2-6.4-21.2-6.8-32.3c-0.6-16.9,0.9-33.6,8.7-49.1c4.5-9.1,10.9-16.3,21.6-18.2c6.1-1.1,11.8,0.2,17.3,2.9
		c0.9,0.4,1.9,1.6,1.9,2.5c0.2,5.2,0.1,10.4,0.1,15.6c-4-1.2-7.7-2.6-11.6-3.3c-8.2-1.4-14.2,2.4-18.6,9c-4.8,7.2-6.7,15.4-7.4,23.8
		c-0.9,10.5-0.9,21,2.1,31.2c1.1,3.9,2.8,7.7,5,11c4.2,6.4,11.8,8.8,19.1,6.6c0.9-0.3,2.2-1.3,2.2-2.1
		C334.2,115.3,334.1,107,334.1,98.4z"/>
	<path fill="#FFFFFF" stroke="#FFFFFF" stroke-miterlimit="10" d="M371.2,141.7c-4,0-7.4,0-11,0c0-37.9,0-75.6,0-113.7
		c3.5,0,6.9,0,10.8,0c0,15.4,0,30.8,0,46.4c9.5,0,18.5,0,28.1,0c0-15.4,0-30.8,0-46.4c4,0,7.5,0,11.3,0c0,37.9,0,75.6,0,113.5
		c-3.6,0-7.1,0-10.9,0c0-16.3,0-32.5,0-49c-9.5,0-18.7,0-28.2,0C371.2,108.9,371.2,125.1,371.2,141.7z"/>
	<path fill="#FFFFFF" stroke="#FFFFFF" stroke-miterlimit="10" d="M227.3,28c4,0,7.4,0,11.3,0c0,1.6,0,3,0,4.5
		c0.1,23,0,45.9,0.4,68.9c0.1,5.5,1.5,11.1,3.1,16.4c1.5,5.1,5.3,8.6,11.1,8.6c5.8-0.1,9.6-3.6,10.9-8.8c1.7-7,3.1-14.1,3.3-21.3
		c0.4-21.2,0.2-42.4,0.2-63.6c0-1.4,0-2.8,0-4.4c3.8,0,7.3,0,11.1,0c0.1,1.1,0.2,2.1,0.2,3.1c0,22.4,0,44.7-0.1,67.1
		c0,10.3-0.9,20.5-4.9,30.2c-4.8,11.9-14.9,17.6-26.3,14.8c-6.3-1.5-10.6-5.7-13.6-11.2c-4.1-7.6-6-16-6.1-24.5
		c-0.4-23.9-0.4-47.8-0.6-71.7C227.3,33.3,227.3,30.8,227.3,28z"/>
	<path fill="#FFFFFF" stroke="#FFFFFF" stroke-miterlimit="10" d="M218.1,141.7c-4.2,0-7.9,0-11.9,0c-1.7-8.3-3.6-16.5-5-24.7
		c-0.6-3.4-1.9-4.3-5.2-4.2c-5.1,0.3-10.3,0.2-15.4,0c-2.5-0.1-3.5,0.7-3.9,3.2c-1.4,7.8-3.2,15.5-4.7,23.3c-0.4,2-1.2,2.7-3.2,2.6
		c-2.9-0.1-5.8,0-9.3,0c8.1-38.2,16.1-75.9,24.1-113.8c3.5,0,6.7,0,10.4,0C202,65.8,210,103.6,218.1,141.7z M196.5,95.2
		c-2.5-13-5-25.7-7.7-39.4c-2.7,13.7-5.1,26.4-7.7,39.4C186.5,95.2,191.2,95.2,196.5,95.2z"/>
</g>
</svg>
