<?xml version="1.0" encoding="utf-8"?>
<!-- Generator: Adobe Illustrator 18.1.1, SVG Export Plug-In . SVG Version: 6.00 Build 0)  -->
<svg version="1.1" id="Layer_1" xmlns="http://www.w3.org/2000/svg" xmlns:xlink="http://www.w3.org/1999/xlink" x="0px" y="0px"
	 viewBox="0 0 854 770.023" enable-background="new 0 0 854 770.023" xml:space="preserve">
<g>
	<g>
		<path fill="#FEFEFE" d="M854.712,339.465c0,142.689-0.009,285.378,0.067,428.067c0.001,2.668-0.601,3.273-3.269,3.27
			c-76.267-0.084-152.534-0.067-228.801-0.067c0.112-0.57,0.521-0.682,1.026-0.707c5.701-0.274,11.274-1.394,16.74-2.914
			c21.91-6.091,37.335-18.8,42.398-41.959c3.618-16.549-1.962-27.835-17.315-34.892c-4.405-2.025-8.982-3.6-13.631-4.949
			c-8.83-2.563-17.694-5.008-26.503-7.641c-2.417-0.722-4.622-2.031-4.878-4.994c-0.282-3.264,1.108-5.741,3.817-7.483
			c3.094-1.99,6.554-2.597,10.171-2.545c5.95,0.086,9.673,2.854,8.895,8.72c-0.182,1.373-0.077,2.203,1.705,2.196
			c14.349-0.055,28.697-0.031,43.046-0.034c0.963,0,2.018,0.034,2.023-1.343c0.026-6.944,1.199-13.971-1.711-20.691
			c-4.076-9.413-12.128-13.626-21.351-15.92c-15.507-3.857-31.198-3.729-46.875-1.052c-12.297,2.1-23.764,6.293-33.251,14.719
			c-11.737,10.425-17.109,23.733-16.127,39.25c0.75,11.853,8.851,18.032,19.26,21.589c7.698,2.63,15.526,4.881,23.28,7.351
			c4.942,1.574,9.938,3.03,14.759,4.923c4.966,1.95,6.147,5.453,3.899,10.279c-2.058,4.419-5.729,6.944-10.341,7.857
			c-9.065,1.795-15.38-2.281-13.574-11.794c0.324-1.709-0.206-2.005-1.732-2.001c-15.297,0.036-30.595,0.032-45.892,0.004
			c-1.195-0.002-2.133,0.17-2.357,1.52c-1.741,10.516-1.366,20.585,6.351,29.018c5.223,5.707,12.034,8.549,19.274,10.679
			c4.135,1.216,8.546,1.124,12.562,2.814c-197.408,0-394.817-0.007-592.225,0.07c-2.758,0.001-3.53-0.375-3.527-3.389
			c0.106-96.629,0.087-193.259,0.087-289.888c5.608,2.54,11.153,5.23,16.839,7.582c6.985,2.89,13.624,6.589,20.858,8.887
			c0.671-0.053,1.378,0.014,2.009-0.175c57.668-17.294,115.33-34.608,172.992-51.921c0.974,2.156,1.92,4.325,2.928,6.465
			c12.612,26.764,32.122,47.511,56.298,64.078c41.345,28.333,87.787,40.737,137.262,43.228c10.51,0.529,21.058,0.279,31.606-0.397
			c11.464-0.735,22.849-2,34.125-4.006c23.613-4.201,46.431-11.083,68.148-21.39c1.628-0.773,2.84-0.934,4.35,0.536
			c7.55,7.354,15.282,14.522,22.867,21.841c16.116,15.551,32.218,31.118,48.218,46.789c1.943,1.904,2.944,2.09,4.903,0.033
			c12.99-13.642,26.114-27.157,39.198-40.711c13.331-13.81,26.666-27.616,39.999-41.423c13.333-13.807,26.667-27.613,39.998-41.422
			c13.167-13.638,26.313-27.296,39.501-40.913c17.395-17.961,34.794-35.918,52.264-53.805c2.443-2.502,4.407-5.163,5.653-8.443
			c1.763-4.644,3.595-9.271,5.634-13.799C849.213,352.225,851.175,345.5,854.712,339.465z M537.723,700.669
			c0.151-0.177,0.265-0.413,0.451-0.51c0.415-0.216,0.854-0.41,1.305-0.53c17.888-4.758,27.729-16.409,30.323-34.676
			c1.853-13.045-3.494-22.321-15.981-26.33c-4.4-1.412-8.949-2.289-13.582-2.4c-27.978-0.669-55.961-0.099-83.94-0.337
			c-2.08-0.018-2.71,0.642-3.145,2.696c-8.847,41.837-17.798,83.652-26.757,125.465c-0.467,2.178-0.194,3.107,2.455,3.084
			c14.94-0.133,29.883-0.14,44.823,0.008c2.564,0.025,3.419-0.791,3.905-3.181c2.773-13.659,5.685-27.29,8.606-40.919
			c0.24-1.122,0.03-2.75,2.015-2.75c3.437,0,6.903-0.207,10.248,0.743c2.886,0.82,4.684,2.716,4.774,5.867
			c0.048,1.657,0.02,3.319-0.049,4.976c-0.447,10.645-1.767,21.247-1.499,31.933c0.058,2.299,0.419,3.346,3.099,3.323
			c15.177-0.129,30.357-0.12,45.534-0.001c2.343,0.018,2.81-0.729,2.557-2.823c-0.99-8.163-0.061-16.291,0.543-24.427
			c0.535-7.199,1.661-14.354,1.587-21.599c-0.093-9.09-4.17-14.367-12.911-16.644C540.647,701.261,539.185,700.99,537.723,700.669z
			 M317.004,683.911c0.752-3.637,1.662-6.954,2.069-10.331c0.352-2.921,1.734-3.396,4.408-3.367
			c13.752,0.147,27.506,0.069,41.259,0.065c1.502,0,2.859,0.319,3.32-2.03c1.954-9.966,4.135-19.889,6.332-29.805
			c0.468-2.11-0.149-2.561-2.203-2.557c-31.537,0.057-63.075,0.059-94.612-0.004c-2.123-0.004-2.71,0.732-3.114,2.745
			c-2.066,10.305-4.363,20.563-6.556,30.843c-6.728,31.538-13.436,63.081-20.183,94.615c-0.462,2.161-0.195,3.072,2.434,3.049
			c15.412-0.132,30.826-0.1,46.238-0.024c2.107,0.01,3.018-0.432,3.485-2.746c2.879-14.237,6.06-28.412,8.951-42.647
			c0.574-2.824,1.6-3.684,4.56-3.641c13.632,0.198,27.268,0.039,40.902,0.136c2.104,0.015,3.144-0.488,3.587-2.661
			c2.006-9.834,4.104-19.651,6.279-29.449c0.399-1.797-0.002-2.267-1.79-2.222c-4.029,0.103-8.061,0.032-12.093,0.032
			C339.268,683.911,328.258,683.911,317.004,683.911z M816.721,637.135c-0.58-0.127-0.92-0.267-1.261-0.267
			c-37.944,0.017-75.889,0.058-113.833,0.035c-1.8-0.001-2.427,0.632-2.783,2.322c-2.239,10.633-4.542,21.254-6.929,31.855
			c-0.511,2.271-0.159,3.067,2.407,3.02c8.654-0.158,17.314,0.053,25.967-0.126c2.782-0.058,3.079,0.843,2.567,3.252
			c-6.238,29.35-12.364,58.724-18.652,88.064c-0.524,2.447,0.079,2.738,2.256,2.728c15.652-0.073,31.305-0.073,46.958,0.002
			c2.047,0.01,2.76-0.579,3.197-2.665c6.127-29.245,12.411-58.457,18.553-87.699c0.581-2.765,1.546-3.808,4.59-3.711
			c8.529,0.27,17.073,0.119,25.61,0.063c1.132-0.007,2.644,0.694,3.109-1.34C811.183,660.831,813.958,649.008,816.721,637.135z
			 M384.663,767.067c7.704,0,15.409-0.103,23.109,0.061c2.418,0.051,3.183-0.804,3.629-3.063c1.877-9.495,3.955-18.951,5.973-28.418
			c6.917-32.45,13.825-64.901,20.796-97.339c0.438-2.037-0.201-2.419-2.063-2.413c-15.763,0.052-31.526,0.066-47.288-0.014
			c-1.803-0.009-2.531,0.642-2.841,2.26c-0.624,3.249-1.292,6.49-1.98,9.726c-8.273,38.917-16.527,77.839-24.899,116.734
			c-0.502,2.33,0.143,2.518,2.098,2.499C369.018,767.02,376.84,767.067,384.663,767.067z M780.328,768.883
			c7.472-0.003,13.518-6.126,13.442-13.611c-0.076-7.554-6.098-13.41-13.689-13.313c-7.413,0.095-13.192,5.94-13.219,13.369
			C766.834,762.889,772.792,768.886,780.328,768.883z"/>
		<path fill="#FFFFFF" d="M235.562,0.712c205.239,0,410.479,0.007,615.718-0.071c2.775-0.001,3.52,0.402,3.518,3.398
			c-0.102,111.097-0.086,222.194-0.086,333.292c-0.194-0.103-0.37-0.079-0.53,0.072c-14.523-13.963-29.057-27.912-43.565-41.888
			c-26.372-25.404-52.735-50.818-79.09-76.239c-33.86-32.66-67.719-65.32-101.527-98.035c-1.638-1.585-2.365-1.698-4.059,0.081
			c-13.814,14.5-27.782,28.853-41.692,43.261c-12.591,13.043-25.168,26.101-37.751,39.152
			c-12.079,12.529-24.158,25.057-36.237,37.586c-15.227-6.625-31.03-11.15-47.444-13.819c-18.549-3.017-37.138-3.363-55.78-1.735
			c-4.53,0.396-9.183,0.552-13.584,2.055c-7.845-13.314-15.201-26.902-22.754-40.381c-21.434-38.244-43.043-76.39-64.603-114.564
			c-10.925-19.344-21.893-38.663-32.841-57.994c-1.613-1.72-3.91-1.986-5.959-2.733C256.731,8.301,246.142,4.518,235.562,0.712z"/>
		<path fill="#FFFFFF" d="M0.712,476.817c0-157.555,0.009-315.11-0.07-472.665C0.64,1.394,1.015,0.619,4.03,0.624
			c76.703,0.111,153.406,0.088,230.109,0.088c0.007,1.259-0.768,2.216-1.281,3.268c-9.088,18.621-18.164,37.248-27.285,55.853
			c-18.554,37.851-37.136,75.688-55.7,113.534c-12.045,24.557-24.072,49.123-36.119,73.68
			c-18.722,38.163-37.453,76.322-56.18,114.482c-13.302,27.106-26.579,54.224-39.913,81.314
			C12.072,454.198,6.365,465.494,0.712,476.817z"/>
		<path fill="#A9A9AD" d="M854.183,337.404c0.159-0.152,0.335-0.177,0.529-0.074c0,0.712,0,1.423,0,2.135
			c-3.537,6.035-5.499,12.76-8.353,19.097c-2.039,4.528-3.871,9.155-5.634,13.799c-1.246,3.281-3.21,5.942-5.653,8.443
			c-17.47,17.887-34.87,35.844-52.264,53.805c-13.188,13.617-26.334,27.275-39.501,40.913
			c-13.331,13.808-26.665,27.615-39.998,41.422c-13.333,13.808-26.668,27.614-39.999,41.423
			c-13.084,13.553-26.207,27.069-39.198,40.711c-1.959,2.057-2.959,1.871-4.903-0.033c-15.999-15.671-32.102-31.237-48.218-46.789
			c-7.585-7.319-15.316-14.487-22.867-21.841c-1.509-1.47-2.721-1.309-4.35-0.536c-21.717,10.307-44.535,17.189-68.148,21.39
			c-11.276,2.006-22.66,3.271-34.125,4.006c-10.548,0.676-21.096,0.927-31.606,0.397c-49.474-2.491-95.916-14.895-137.262-43.228
			c-24.176-16.567-43.686-37.313-56.298-64.078c-1.008-2.14-1.953-4.309-2.927-6.465c-8.115-19.643-9.432-40.34-9.164-61.732
			c-18.581,5.553-36.723,10.974-55.691,16.642c4.111-7.456,6.679-14.679,10.865-21.098c0.804-0.16,1.628-0.257,2.41-0.491
			c12.915-3.863,25.852-7.655,38.714-11.686c2.974-0.932,3.773-0.284,3.786,2.692c0.009,2.217,0.585,4.441,1.001,6.644
			c5.147,27.28,18.5,50.23,37.458,70.082c14.52,15.204,31.441,27.316,49.976,37.161c34.64,18.4,71.862,27.568,110.778,29.917
			c19.029,1.149,38.129,0.62,57.075-2.027c20.531-2.868,40.639-7.513,60.143-14.656c35.861-13.132,67.554-32.501,92.732-61.683
			c12.204-14.145,21.558-29.956,27.663-47.628c3.949-11.432,5.977-23.262,6.977-35.322c0.286,5.69,0.092,11.375,0.325,17.042
			c0.511,12.42,1.196,24.818-0.016,37.247c-1.826,18.727-8.258,35.836-17.535,52.053c-2.095,3.663-5.349,6.689-6.239,11.031
			c-0.974-0.018-1.428,0.677-1.926,1.357c-11.015,15.042-24.218,27.904-39.222,38.903c-2.571,1.885-1.701,2.783,0.001,4.423
			c17.154,16.535,34.295,33.083,51.313,49.757c2.149,2.105,3.232,2.011,5.236-0.1c12.238-12.894,24.61-25.661,36.95-38.457
			c19.582-20.305,39.174-40.601,58.763-60.9c19.753-20.469,39.492-40.952,59.268-61.399c18.624-19.256,37.297-38.465,55.914-57.727
			C852.249,340.619,853.824,339.42,854.183,337.404z"/>
		<path fill="#A9A9AD" d="M0.712,476.817c5.653-11.323,11.36-22.619,16.949-33.973c13.334-27.09,26.612-54.208,39.913-81.314
			c18.726-38.161,37.458-76.319,56.18-114.482c12.047-24.557,24.074-49.123,36.119-73.68c18.564-37.846,37.146-75.683,55.7-113.534
			c9.12-18.605,18.197-37.232,27.285-55.853c0.513-1.052,1.288-2.009,1.281-3.268c0.474,0,0.949,0,1.423,0
			c10.58,3.806,21.17,7.589,31.734,11.44c2.049,0.747,4.346,1.013,5.959,2.734c-0.444,0.675-0.97,1.31-1.322,2.029
			c-9.832,20.075-19.639,40.163-29.465,60.241c-32.393,66.184-64.79,132.366-97.189,198.547
			c-15.913,32.507-31.835,65.01-47.749,97.516c-19.709,40.259-39.414,80.519-59.121,120.779c-7.234-2.298-13.873-5.998-20.858-8.887
			c-5.685-2.352-11.231-5.042-16.839-7.582C0.712,477.291,0.712,477.054,0.712,476.817z"/>
		<path fill="#242021" d="M596.377,770.735c-4.016-1.69-8.427-1.598-12.562-2.814c-7.24-2.13-14.052-4.972-19.274-10.679
			c-7.717-8.433-8.093-18.502-6.351-29.018c0.224-1.35,1.161-1.522,2.357-1.52c15.297,0.028,30.595,0.033,45.892-0.004
			c1.527-0.004,2.057,0.293,1.732,2.001c-1.806,9.513,4.509,13.589,13.574,11.794c4.612-0.913,8.283-3.438,10.341-7.857
			c2.248-4.827,1.067-8.329-3.899-10.279c-4.821-1.893-9.816-3.348-14.759-4.923c-7.754-2.47-15.582-4.72-23.28-7.351
			c-10.409-3.557-18.51-9.735-19.26-21.589c-0.981-15.517,4.39-28.825,16.127-39.25c9.487-8.426,20.954-12.619,33.251-14.719
			c15.677-2.678,31.369-2.806,46.875,1.052c9.223,2.294,17.274,6.507,21.351,15.92c2.91,6.721,1.737,13.747,1.711,20.691
			c-0.005,1.376-1.06,1.342-2.023,1.343c-14.349,0.003-28.697-0.021-43.046,0.034c-1.782,0.007-1.887-0.823-1.705-2.196
			c0.778-5.867-2.945-8.634-8.895-8.72c-3.617-0.052-7.076,0.555-10.171,2.545c-2.709,1.742-4.098,4.219-3.817,7.483
			c0.255,2.962,2.461,4.272,4.878,4.994c8.808,2.633,17.673,5.078,26.503,7.641c4.649,1.349,9.226,2.924,13.631,4.949
			c15.353,7.057,20.933,18.344,17.315,34.892c-5.063,23.16-20.488,35.868-42.398,41.959c-5.466,1.52-11.039,2.639-16.74,2.914
			c-0.504,0.024-0.914,0.137-1.026,0.707C613.931,770.735,605.154,770.735,596.377,770.735z"/>
		<path fill="#EC2327" d="M38.408,493.998c19.707-40.26,39.412-80.52,59.121-120.779c15.914-32.507,31.835-65.009,47.749-97.516
			c32.398-66.181,64.796-132.363,97.189-198.547c9.827-20.078,19.633-40.166,29.465-60.241c0.352-0.72,0.878-1.354,1.322-2.029
			c10.948,19.33,21.916,38.65,32.841,57.993c21.56,38.173,43.169,76.319,64.603,114.564c7.554,13.478,14.909,27.067,22.754,40.38
			c7.232,13.066,14.46,26.135,21.715,39.189c0.268,0.482,0.79,0.823,1.194,1.23c8.344,14.709,16.688,29.418,25.032,44.127
			c9.224,16.471,18.371,32.987,27.749,49.37c1.565,2.733,0.849,3.307-1.71,4.058c-8.584,2.518-17.111,5.232-25.659,7.871
			c-4.174,1.182-8.383,2.258-12.517,3.568c-9.837,3.117-19.895,5.525-29.564,9.182c-0.919,0.167-1.865,0.248-2.755,0.513
			c-31.446,9.385-62.898,18.752-94.308,28.257c-2.402,0.727-3.986,0.459-5.593-1.336c-2.211-2.47-4.638-4.748-6.809-7.25
			c-9.882-11.39-17.584-23.998-21.377-38.755c0.213-0.799,0.555-1.589,0.616-2.4c0.313-4.125,2.646-5.769,6.563-6.923
			c35.93-10.593,71.78-21.454,107.679-32.15c2.6-0.775,3.072-1.416,1.627-3.973c-35.096-62.117-70.094-124.29-105.138-186.436
			c-0.611-1.083-0.891-2.476-2.373-3.152c-2.552,5.858-5.999,11.248-8.04,17.306c-0.242,0.403-0.515,0.791-0.721,1.212
			c-29.481,60.249-58.965,120.496-88.43,180.753c-7.104,14.527-14.144,29.086-21.213,43.63c-4.186,6.42-6.753,13.642-10.865,21.098
			c18.967-5.668,37.109-11.089,55.691-16.642c-0.268,21.392,1.049,42.089,9.164,61.732
			c-57.663,17.313-115.325,34.627-172.993,51.922C39.787,494.012,39.08,493.945,38.408,493.998z"/>
		<path fill="#242021" d="M537.723,700.669c1.462,0.321,2.924,0.592,4.36,0.966c8.741,2.277,12.818,7.554,12.911,16.644
			c0.074,7.244-1.052,14.4-1.587,21.599c-0.604,8.136-1.533,16.265-0.543,24.427c0.254,2.094-0.213,2.841-2.557,2.823
			c-15.178-0.119-30.357-0.128-45.534,0.001c-2.679,0.023-3.041-1.025-3.099-3.323c-0.268-10.686,1.052-21.287,1.499-31.933
			c0.07-1.657,0.097-3.319,0.049-4.976c-0.091-3.151-1.889-5.047-4.774-5.867c-3.345-0.95-6.81-0.743-10.248-0.743
			c-1.984,0-1.774,1.628-2.015,2.75c-2.921,13.629-5.833,27.26-8.606,40.919c-0.485,2.39-1.34,3.207-3.905,3.181
			c-14.94-0.147-29.882-0.141-44.823-0.008c-2.649,0.024-2.922-0.906-2.455-3.084c8.959-41.813,17.909-83.628,26.757-125.465
			c0.434-2.054,1.065-2.714,3.145-2.696c27.979,0.238,55.962-0.332,83.94,0.337c4.634,0.111,9.182,0.988,13.582,2.4
			c12.487,4.008,17.833,13.284,15.981,26.33c-2.594,18.267-12.435,29.918-30.323,34.676c-0.451,0.12-0.89,0.314-1.305,0.53
			C537.987,700.256,537.874,700.492,537.723,700.669z M498.184,690.422c11.722-0.257,18.236-5.285,19.448-15.01
			c0.548-4.398-1.3-7.333-5.537-8.608c-3.673-1.105-7.48-0.972-11.263-1.133c-1.96-0.083-2.58,0.643-2.937,2.497
			c-1.116,5.798-2.443,11.556-3.726,17.321C493.046,690.54,493.024,690.535,498.184,690.422z"/>
		<path fill="#242021" d="M317.004,683.911c11.255,0,22.264,0,33.274,0c4.031,0,8.064,0.071,12.093-0.032
			c1.789-0.045,2.189,0.424,1.79,2.222c-2.175,9.798-4.273,19.615-6.279,29.449c-0.443,2.173-1.483,2.676-3.587,2.661
			c-13.634-0.097-27.271,0.062-40.902-0.136c-2.96-0.043-3.987,0.817-4.56,3.641c-2.891,14.234-6.072,28.41-8.951,42.647
			c-0.468,2.314-1.378,2.756-3.485,2.746c-15.413-0.076-30.827-0.108-46.238,0.024c-2.63,0.023-2.897-0.888-2.434-3.049
			c6.747-31.534,13.456-63.077,20.183-94.615c2.193-10.28,4.49-20.538,6.556-30.843c0.404-2.013,0.991-2.749,3.114-2.745
			c31.537,0.063,63.075,0.062,94.612,0.004c2.054-0.004,2.671,0.447,2.203,2.557c-2.197,9.917-4.379,19.839-6.332,29.805
			c-0.46,2.349-1.818,2.03-3.32,2.03c-13.753,0.004-27.507,0.082-41.259-0.065c-2.674-0.029-4.057,0.447-4.408,3.367
			C318.665,676.957,317.756,680.274,317.004,683.911z"/>
		<path fill="#242021" d="M816.721,637.135c-2.763,11.873-5.537,23.695-8.245,35.533c-0.465,2.034-1.978,1.332-3.109,1.34
			c-8.538,0.057-17.081,0.207-25.61-0.063c-3.044-0.096-4.009,0.947-4.59,3.711c-6.142,29.242-12.426,58.454-18.553,87.699
			c-0.437,2.086-1.15,2.675-3.197,2.665c-15.652-0.075-31.305-0.075-46.958-0.002c-2.176,0.01-2.78-0.281-2.256-2.728
			c6.288-29.339,12.415-58.713,18.652-88.064c0.512-2.409,0.215-3.31-2.567-3.252c-8.653,0.179-17.313-0.032-25.967,0.126
			c-2.566,0.047-2.919-0.749-2.407-3.02c2.387-10.601,4.69-21.221,6.929-31.855c0.356-1.691,0.983-2.323,2.783-2.322
			c37.944,0.023,75.889-0.017,113.833-0.035C815.8,636.868,816.141,637.008,816.721,637.135z"/>
		<path fill="#242021" d="M384.663,767.067c-7.822,0-15.645-0.047-23.466,0.033c-1.955,0.02-2.599-0.168-2.098-2.499
			c8.372-38.896,16.626-77.817,24.899-116.734c0.688-3.236,1.356-6.477,1.98-9.726c0.311-1.618,1.039-2.27,2.841-2.26
			c15.762,0.08,31.525,0.067,47.288,0.014c1.862-0.006,2.501,0.376,2.063,2.413c-6.972,32.438-13.879,64.889-20.796,97.339
			c-2.018,9.467-4.096,18.923-5.973,28.418c-0.446,2.259-1.212,3.114-3.629,3.063C400.072,766.964,392.366,767.067,384.663,767.067z
			"/>
		<path fill="#242021" d="M780.328,768.883c-7.536,0.003-13.494-5.993-13.466-13.554c0.027-7.43,5.807-13.274,13.219-13.369
			c7.591-0.097,13.612,5.759,13.689,13.313C793.846,762.757,787.8,768.88,780.328,768.883z M791.482,755.432
			c0.03-6.279-4.984-11.398-11.158-11.394c-6.089,0.004-11.336,5.21-11.397,11.308c-0.061,6.147,5.046,11.22,11.305,11.228
			C786.684,766.582,791.452,761.86,791.482,755.432z"/>
		<path fill="#0E67B2" d="M441.773,373.667c8.549-2.639,17.075-5.353,25.66-7.871c2.559-0.75,3.274-1.324,1.71-4.058
			c-9.378-16.383-18.525-32.899-27.749-49.37c3.048-3.115,6.123-6.205,9.14-9.35c9.473-9.874,18.925-19.768,28.385-29.655
			c0.48-0.326,1.035-0.58,1.429-0.989c9.981-10.341,19.946-20.698,29.914-31.053c12.079-12.529,24.158-25.057,36.237-37.586
			c12.583-13.051,25.159-26.109,37.751-39.152c13.91-14.409,27.878-28.761,41.692-43.261c1.695-1.779,2.422-1.666,4.059-0.081
			c33.808,32.714,67.667,65.374,101.527,98.035c26.355,25.421,52.718,50.835,79.09,76.239
			c14.508,13.976,29.042,27.925,43.565,41.888c-0.357,2.018-1.933,3.217-3.216,4.545c-18.617,19.262-37.291,38.471-55.914,57.727
			c-19.776,20.447-39.515,40.93-59.268,61.399c-19.589,20.298-39.181,40.594-58.763,60.9c-12.341,12.796-24.712,25.563-36.95,38.457
			c-2.003,2.111-3.087,2.206-5.236,0.1c-17.018-16.674-34.159-33.222-51.313-49.757c-1.702-1.641-2.573-2.539-0.001-4.423
			c15.004-10.999,28.207-23.861,39.222-38.903c0.498-0.679,0.952-1.375,1.927-1.356c2.799,2.725,5.727,5.329,8.349,8.212
			c1.867,2.052,2.981,2.06,4.974-0.02c19.567-20.423,39.26-40.724,58.901-61.076c15.447-16.005,30.871-32.033,46.306-48.05
			c0.32-0.139,0.725-0.196,0.949-0.429c8.3-8.616,16.557-17.275,24.897-25.853c1.372-1.411,0.696-2.175-0.359-3.159
			c-2.945-2.746-5.876-5.508-8.774-8.302c-13.649-13.159-27.293-26.324-40.923-39.502c-21.894-21.168-43.774-42.35-65.664-63.522
			c-6.899-6.673-13.814-13.329-20.71-20.005c-1.041-1.008-1.741-2.083-3.36-0.384c-13.895,14.579-27.868,29.085-41.859,43.573
			c-21.072,21.822-42.173,43.616-63.269,65.415c-8.819,9.112-17.661,18.202-26.477,27.317c-0.755,0.781-2.08,1.497-0.593,2.83
			c3.787,3.394,7.05,7.346,11.122,10.438c16.429,15.879,32.829,31.788,49.327,47.595c1.881,1.802,1.978,2.802,0.156,4.769
			c-11.718,12.649-25.405,22.65-40.586,30.682c-2.38,1.259-4.614,2.911-7.397,3.29c-4.331-5.203-9.439-9.64-14.27-14.342
			C477.584,408.214,459.66,390.959,441.773,373.667z"/>
		<path fill="#A9A9AD" d="M510.26,241.322c-9.968,10.354-19.932,20.712-29.914,31.053c-0.395,0.409-0.949,0.663-1.429,0.988
			c-18.627-4.47-37.522-6.305-56.657-5.713c-1.972,0.061-4.02-0.45-5.9,0.592c-0.404-0.407-0.926-0.748-1.194-1.23
			c-7.254-13.054-14.482-26.123-21.715-39.189c4.401-1.502,9.054-1.659,13.584-2.055c18.641-1.629,37.231-1.282,55.78,1.735
			C479.23,230.172,495.033,234.697,510.26,241.322z"/>
		<path fill="#FFFFFF" d="M743.201,365.156c-15.434,16.018-30.859,32.045-46.306,48.05c-19.641,20.352-39.334,40.653-58.901,61.076
			c-1.993,2.08-3.107,2.071-4.974,0.02c-2.623-2.882-5.551-5.487-8.349-8.212c0.888-4.343,4.142-7.369,6.237-11.032
			c9.277-16.217,15.709-33.326,17.535-52.053c1.212-12.429,0.526-24.827,0.016-37.247c-0.233-5.667-0.04-11.351-0.325-17.042
			c-1,12.059-3.028,23.89-6.977,35.322c-6.105,17.672-15.458,33.483-27.663,47.628c-25.178,29.182-56.871,48.551-92.732,61.683
			c-19.504,7.142-39.612,11.787-60.143,14.656c-18.946,2.647-38.046,3.176-57.075,2.027c-38.916-2.35-76.139-11.517-110.778-29.917
			c-18.535-9.846-35.456-21.957-49.976-37.161c-18.959-19.852-32.311-42.802-37.458-70.082c-0.416-2.203-0.991-4.428-1.001-6.644
			c-0.012-2.977-0.811-3.624-3.786-2.692c-12.862,4.031-25.799,7.823-38.714,11.686c-0.782,0.234-1.606,0.331-2.41,0.491
			c7.07-14.545,14.11-29.103,21.214-43.631c29.465-60.257,58.948-120.505,88.43-180.753c0.206-0.421,0.479-0.809,0.721-1.212
			c2.461,2.633,3.717,6.007,5.462,9.064c16.55,28.987,32.998,58.031,49.507,87.041c2.604,4.576,2.675,4.536-1.67,7.351
			c-0.298,0.193-0.612,0.36-0.911,0.552c-21.487,13.761-39.058,31.1-49.3,54.896c-8.212,19.079-9.911,38.723-4.022,58.825
			c3.793,14.756,11.495,27.365,21.377,38.755c2.171,2.502,4.598,4.781,6.809,7.25c1.607,1.795,3.192,2.063,5.593,1.336
			c31.41-9.505,62.862-18.872,94.308-28.257c0.89-0.266,1.835-0.346,2.757-0.514c0.458,0.678,0.809,1.466,1.385,2.02
			c15.921,15.331,31.867,30.637,47.805,45.95c6.223,5.979,12.468,11.935,18.628,17.978c1.228,1.204,2.245,1.523,4.017,1.128
			c6.92-1.541,13.707-3.521,20.348-5.942c6.066-2.212,12.298-4.097,17.802-7.64c2.783-0.379,5.017-2.031,7.397-3.29
			c15.181-8.032,28.868-18.033,40.586-30.682c1.822-1.967,1.725-2.967-0.156-4.769c-16.498-15.807-32.898-31.716-49.326-47.594
			c3.287-3.408,6.58-6.81,9.858-10.226c10.166-10.593,20.32-21.199,30.501-31.778c1.066-1.108,1.89-2.78,3.95-0.89
			c7.72,7.079,14.48,14.938,20.037,23.818c4.496,7.184,7.908,14.889,10.834,23.751c2.377-10.559,2.524-20.303,1.277-30.071
			c-1.704-13.354-6.434-25.646-13.636-36.976c-1.025-1.613-0.606-2.409,0.53-3.577c14.209-14.596,28.404-29.208,42.516-43.898
			c1.572-1.636,2.388-1.44,3.898,0.028c8.746,8.498,17.625,16.858,26.414,25.313c13.657,13.139,27.296,26.297,40.909,39.482
			c11.574,11.209,23.077,22.493,34.66,33.694C727.756,349.812,735.865,357.09,743.201,365.156z"/>
		<path fill="#A9A9AD" d="M268.85,367.846c-5.889-20.102-4.19-39.746,4.022-58.825c10.242-23.796,27.813-41.134,49.3-54.896
			c0.299-0.191,0.613-0.359,0.911-0.552c4.345-2.815,4.274-2.775,1.67-7.351c-16.508-29.01-32.957-58.055-49.507-87.041
			c-1.745-3.057-3.002-6.431-5.462-9.064c2.041-6.059,5.488-11.449,8.04-17.306c1.482,0.677,1.762,2.07,2.373,3.152
			c35.045,62.146,70.043,124.319,105.138,186.436c1.445,2.557,0.973,3.199-1.627,3.973c-35.899,10.696-71.75,21.557-107.679,32.15
			c-3.917,1.155-6.25,2.799-6.563,6.923C269.405,366.256,269.063,367.046,268.85,367.846z M280.697,339.141
			c0.547,0.143,0.672,0.222,0.765,0.194c26.498-7.935,52.985-15.902,79.502-23.773c2.289-0.68,1.699-1.596,0.903-2.992
			c-4.808-8.435-9.683-16.835-14.289-25.379c-1.247-2.313-2.227-2.222-4.325-1.238c-14.027,6.579-27.075,14.696-38.685,24.948
			C295.311,319.076,287.038,328.177,280.697,339.141z"/>
		<path fill="#A9A9AD" d="M509.681,439.91c-5.504,3.544-11.737,5.429-17.802,7.64c-6.641,2.421-13.429,4.402-20.348,5.942
			c-1.772,0.395-2.79,0.076-4.017-1.128c-6.16-6.043-12.406-11.999-18.628-17.978c-15.938-15.314-31.884-30.619-47.805-45.95
			c-0.576-0.554-0.927-1.342-1.385-2.02c9.666-3.656,19.724-6.064,29.561-9.181c4.134-1.31,8.343-2.386,12.517-3.568
			c17.887,17.292,35.811,34.547,53.638,51.901C500.242,430.27,505.35,434.707,509.681,439.91z"/>
		<path fill="#FEFEFE" d="M416.361,268.242c1.88-1.042,3.929-0.531,5.9-0.592c19.135-0.592,38.03,1.243,56.657,5.713
			c-9.46,9.887-18.912,19.782-28.385,29.656c-3.017,3.145-6.092,6.235-9.14,9.35C433.049,297.66,424.705,282.951,416.361,268.242z"
			/>
		<path fill="#FEFEFE" d="M498.184,690.422c-5.16,0.113-5.138,0.118-4.014-4.933c1.282-5.765,2.61-11.523,3.726-17.321
			c0.357-1.854,0.977-2.58,2.937-2.497c3.783,0.161,7.59,0.028,11.263,1.133c4.237,1.275,6.085,4.211,5.537,8.608
			C516.42,685.137,509.906,690.165,498.184,690.422z"/>
		<path fill="#FEFEFE" d="M791.482,755.432c-0.03,6.429-4.798,11.15-11.251,11.142c-6.259-0.008-11.366-5.081-11.305-11.228
			c0.061-6.098,5.308-11.304,11.397-11.308C786.498,744.034,791.511,749.153,791.482,755.432z M775.63,755.426
			c0,1.896-0.024,3.793,0.013,5.688c0.013,0.646-0.19,1.544,0.846,1.619c1.199,0.087,1.246-0.811,1.251-1.678
			c0.005-0.83-0.066-1.667,0.023-2.487c0.1-0.928-0.569-2.448,1.17-2.391c1.424,0.047,3.255-0.389,3.959,1.511
			c0.364,0.982,0.463,2.072,0.605,3.124c0.133,0.982,0.247,2.099,1.531,1.92c1.614-0.225,0.62-1.513,0.595-2.274
			c-0.088-2.731-1.999-5.333,0.006-8.25c0.79-1.149-0.253-2.785-1.717-3.443c-2.475-1.113-5.314-1.24-7.63-0.404
			c-1.574,0.568-0.418,3.227-0.642,4.934C775.55,753.994,775.626,754.715,775.63,755.426z"/>
		<path fill="#A9A9AD" d="M743.201,365.156c-7.335-8.067-15.445-15.345-23.271-22.913c-11.583-11.201-23.085-22.484-34.66-33.694
			c-13.613-13.184-27.252-26.343-40.909-39.482c-8.789-8.455-17.668-16.815-26.414-25.313c-1.511-1.468-2.327-1.664-3.898-0.028
			c-14.112,14.69-28.307,29.301-42.516,43.898c-1.136,1.167-1.555,1.964-0.53,3.577c7.202,11.33,11.932,23.622,13.636,36.976
			c1.247,9.768,1.1,19.512-1.277,30.071c-2.926-8.862-6.338-16.567-10.834-23.751c-5.557-8.88-12.317-16.739-20.037-23.818
			c-2.06-1.889-2.884-0.218-3.95,0.89c-10.181,10.579-20.335,21.185-30.501,31.778c-3.279,3.416-6.572,6.818-9.858,10.226
			c-4.072-3.092-7.335-7.045-11.122-10.439c-1.487-1.333-0.162-2.049,0.593-2.83c8.816-9.115,17.658-18.204,26.477-27.317
			c21.096-21.799,42.197-43.593,63.269-65.415c13.99-14.488,27.963-28.994,41.859-43.573c1.619-1.699,2.319-0.624,3.36,0.384
			c6.896,6.676,13.811,13.332,20.71,20.005c21.89,21.172,43.77,42.354,65.664,63.522c13.63,13.178,27.275,26.343,40.923,39.502
			c2.899,2.795,5.83,5.556,8.774,8.302c1.054,0.983,1.73,1.748,0.359,3.159c-8.34,8.577-16.596,17.237-24.897,25.853
			C743.926,364.96,743.521,365.018,743.201,365.156z"/>
		<path fill="#FEFEFE" d="M280.697,339.141c6.341-10.963,14.614-20.065,23.871-28.24c11.61-10.252,24.658-18.369,38.685-24.948
			c2.098-0.984,3.078-1.075,4.325,1.238c4.607,8.544,9.482,16.944,14.289,25.379c0.796,1.396,1.386,2.312-0.903,2.992
			c-26.517,7.871-53.004,15.839-79.502,23.773C281.369,339.362,281.244,339.284,280.697,339.141z"/>
		<path fill="#242021" d="M775.628,755.426c-0.002-0.711-0.078-1.432,0.013-2.131c0.224-1.707-0.932-4.367,0.642-4.934
			c2.315-0.835,5.154-0.708,7.63,0.404c1.464,0.659,2.507,2.294,1.717,3.443c-2.005,2.917-0.094,5.518-0.006,8.25
			c0.025,0.761,1.018,2.05-0.595,2.274c-1.284,0.179-1.398-0.938-1.531-1.92c-0.142-1.052-0.241-2.142-0.605-3.124
			c-0.705-1.9-2.536-1.464-3.959-1.511c-1.739-0.057-1.07,1.464-1.17,2.391c-0.089,0.82-0.019,1.657-0.023,2.487
			c-0.005,0.867-0.052,1.765-1.251,1.678c-1.036-0.075-0.833-0.972-0.846-1.619C775.606,759.219,775.63,757.322,775.628,755.426z
			 M777.751,751.89c0.022,1.218-0.429,2.711,1.738,2.494c1.694-0.17,3.806,0.316,3.987-2.225c0.115-1.623-1.174-2.207-2.611-2.027
			C779.639,750.284,777.515,749.096,777.751,751.89z"/>
		<path fill="#FEFEFE" d="M777.748,751.894c-0.233-2.797,1.891-1.609,3.117-1.763c1.437-0.18,2.726,0.405,2.611,2.027
			c-0.18,2.542-2.293,2.055-3.987,2.225C777.322,754.601,777.773,753.108,777.748,751.894z"/>
	</g>
</g>
</svg>
